<svg xmlns="http://www.w3.org/2000/svg" width="1600" height="1000" viewBox="0 0 1600 1000" role="img" aria-label="Fictional cliffside villa dusk">
  <defs>
    <linearGradient id="sky" x1="0" y1="0" x2="0.2" y2="1">
      <stop offset="0%" stop-color="#1c2a3a"/>
      <stop offset="45%" stop-color="#6a4a3a"/>
      <stop offset="72%" stop-color="#c48a5a"/>
      <stop offset="100%" stop-color="#e8c9a0"/>
    </linearGradient>
    <linearGradient id="sea" x1="0" y1="0" x2="0" y2="1">
      <stop offset="0%" stop-color="#2a4a5c"/>
      <stop offset="100%" stop-color="#1a303c"/>
    </linearGradient>
    <linearGradient id="stone" x1="0" y1="0" x2="1" y2="1">
      <stop offset="0%" stop-color="#d9c4aa"/>
      <stop offset="100%" stop-color="#b39a7e"/>
    </linearGradient>
  </defs>
  <rect width="1600" height="1000" fill="url(#sky)"/>
  <ellipse cx="1180" cy="220" rx="90" ry="90" fill="#f3e2c4" opacity="0.55"/>
  <path d="M0 620 C280 540 520 700 820 640 C1040 596 1220 520 1600 560 L1600 1000 L0 1000 Z" fill="url(#sea)"/>
  <path d="M140 1000 L260 430 L520 390 L780 470 L820 1000 Z" fill="url(#stone)"/>
  <rect x="360" y="470" width="220" height="160" rx="4" fill="#f4ebe0" opacity="0.92"/>
  <rect x="390" y="500" width="54" height="70" fill="#6d8a96" opacity="0.75"/>
  <rect x="500" y="500" width="54" height="70" fill="#6d8a96" opacity="0.65"/>
  <rect x="420" y="620" width="100" height="12" fill="#c9a882"/>
  <path d="M820 1000 C980 780 1180 760 1600 820 L1600 1000 Z" fill="#3d5a4a" opacity="0.55"/>
  <text x="24" y="48" font-family="Georgia, serif" font-size="28" fill="rgba(255,255,255,0.55)" letter-spacing="4">DEMO</text>`n</svg>
